<?xml version="1.0" standalone="no"?>
<!DOCTYPE svg PUBLIC "-//W3C//DTD SVG 20010904//EN"
 "http://www.w3.org/TR/2001/REC-SVG-20010904/DTD/svg10.dtd">
<svg version="1.0" xmlns="http://www.w3.org/2000/svg"
 width="350.000000pt" height="304.000000pt" viewBox="0 0 350.000000 304.000000"
 preserveAspectRatio="xMidYMid meet">
<metadata>
Created by potrace 1.15, written by Peter Selinger 2001-2017
</metadata>
<g transform="translate(0.000000,304.000000) scale(0.100000,-0.100000)"
fill="#000000" stroke="none">
<path d="M1543 2469 l-401 -401 26 -24 c15 -13 30 -24 33 -24 12 0 2 64 -10
68 -6 2 -9 8 -6 12 3 5 12 7 20 3 10 -3 15 -20 15 -53 0 -38 6 -55 26 -80 l27
-31 30 28 c62 58 66 123 8 123 -28 0 -28 -1 -24 -50 2 -30 0 -50 -7 -50 -6 0
-10 23 -10 54 0 50 2 54 26 60 50 13 70 -4 66 -56 -2 -23 25 -12 33 13 4 11
24 31 45 44 21 13 41 33 45 45 3 11 12 20 18 20 7 0 33 23 59 52 l47 53 85
-85 86 -84 67 67 68 68 -83 81 -82 81 22 25 c51 56 170 172 176 172 4 0 32
-25 62 -55 29 -30 58 -51 64 -48 6 3 7 2 3 -2 -8 -9 190 -215 207 -215 9 0
126 119 126 128 0 5 -458 462 -463 462 -1 0 -183 -181 -404 -401z"/>
<path d="M1931 2517 c-6 -8 -7 -17 -3 -21 4 -4 0 -6 -8 -4 -8 2 -14 -3 -12
-10 1 -8 -1 -11 -6 -8 -5 3 -26 -13 -48 -35 -21 -22 -34 -39 -29 -37 6 2 12
-1 15 -7 10 -23 63 -74 72 -69 5 3 7 0 6 -8 -2 -7 5 -12 14 -12 9 1 14 -4 12
-10 -5 -14 41 -57 51 -48 4 4 5 2 3 -4 -2 -6 30 -46 70 -90 63 -68 75 -76 83
-61 6 10 22 17 39 17 25 0 30 4 30 24 0 30 16 43 22 18 2 -9 1 -51 -2 -92 -4
-68 -7 -75 -27 -78 -32 -5 -62 15 -69 44 -8 31 -23 27 -49 -14 -11 -17 -25
-31 -32 -32 -15 0 -35 -35 -25 -45 4 -3 3 -6 -3 -4 -5 1 -18 -1 -28 -6 -15 -6
-16 -10 -5 -16 11 -7 11 -9 0 -9 -21 0 83 -100 104 -100 16 0 17 -2 4 -10 -13
-8 -13 -10 2 -10 20 0 36 22 20 28 -7 2 -12 8 -12 14 0 6 6 6 15 -2 11 -9 22
-5 54 26 22 20 38 41 34 47 -3 6 -1 7 4 4 6 -4 18 4 27 18 9 14 21 25 26 25 5
0 28 -20 51 -45 23 -24 46 -42 51 -39 5 3 7 1 6 -3 -4 -11 73 -94 82 -88 9 6
6 -38 -4 -54 -7 -10 -6 -12 4 -6 9 5 11 4 6 -3 -4 -7 -13 -12 -20 -12 -18 0
-78 -65 -69 -75 5 -4 2 -5 -4 -1 -13 7 -80 -61 -75 -77 1 -4 -1 -6 -6 -3 -12
7 -84 -68 -75 -79 5 -4 3 -5 -3 -2 -6 3 -24 -7 -40 -24 l-28 -30 64 -64 65
-64 235 236 c129 130 227 233 217 230 -11 -4 -16 -3 -12 3 7 12 -283 309 -299
306 -6 -2 -7 -1 -3 2 5 2 -46 58 -113 125 -96 95 -124 117 -132 106 -8 -11 -9
-10 -4 4 8 24 -199 238 -222 229 -10 -3 -13 -1 -8 6 10 16 1 15 -13 -1z"/>
<path d="M2120 1705 c-91 -91 -168 -164 -172 -162 -4 1 -43 38 -88 81 l-81 79
-64 -63 c-36 -36 -65 -67 -65 -71 0 -3 34 -39 75 -80 41 -41 75 -80 75 -88 0
-16 -170 -191 -186 -191 -6 0 -82 72 -170 160 -87 88 -162 160 -165 160 -11 0
-129 -124 -126 -133 1 -5 105 -111 231 -237 l229 -228 347 345 c191 190 373
371 403 403 l55 57 -67 67 -67 66 -164 -165z"/>
<path d="M905 818 c-58 -32 -97 -92 -110 -165 -7 -42 -8 -43 -47 -43 -56 0
-49 -29 11 -44 44 -11 45 -11 100 -126 38 -79 62 -116 75 -119 29 -5 16 39
-38 134 -25 44 -46 82 -46 86 0 8 62 19 107 19 41 0 63 9 63 26 0 11 -17 14
-74 14 -97 0 -106 4 -106 47 0 71 54 133 123 140 27 3 47 1 51 -6 4 -6 11 -11
17 -11 15 0 10 19 -11 40 -22 22 -82 27 -115 8z"/>
<path d="M1232 608 c2 -96 -17 -152 -56 -169 -20 -10 -29 -9 -42 2 -29 24 -45
78 -43 143 2 47 0 61 -12 61 -19 0 -24 -108 -9 -166 13 -48 59 -99 88 -99 30
0 78 45 96 90 22 55 32 171 17 198 -6 12 -18 22 -26 22 -11 0 -14 -18 -13 -82z"/>
<path d="M1813 590 c-41 -25 -53 -48 -53 -104 0 -86 84 -145 162 -113 36 15
65 44 54 54 -3 4 -16 -3 -29 -14 -32 -29 -71 -36 -111 -19 -38 16 -56 42 -56
80 l0 26 110 0 c70 0 110 4 110 10 0 6 -7 24 -15 40 -30 58 -112 77 -172 40z"/>
<path d="M2091 585 c-78 -67 -56 -189 39 -215 38 -10 58 -6 123 28 4 2 7 -3 7
-12 0 -21 18 -21 22 0 7 35 -4 224 -13 224 -5 0 -9 -9 -9 -21 l0 -20 -29 20
c-42 30 -101 28 -140 -4z m137 -20 c39 -32 48 -72 28 -119 -17 -42 -73 -72
-114 -61 -39 10 -82 59 -82 95 0 37 23 85 47 99 33 19 90 13 121 -14z"/>
<path d="M1411 561 c-17 -16 -31 -34 -31 -40 0 -22 -18 -10 -29 19 -13 38 -31
39 -31 0 0 -41 37 -137 56 -144 24 -9 31 -1 38 45 11 66 32 109 55 109 28 0
49 -36 58 -100 6 -39 13 -55 23 -55 34 0 19 118 -21 169 -29 37 -77 35 -118
-3z"/>
</g>
</svg>
